<svg width="145" height="68" viewBox="0 0 145 68" fill="none" xmlns="http://www.w3.org/2000/svg">
<path d="M0 0H9.32634L24.003 40.3826H24.1994V0H33.9184V66.9807H24.7393L9.91537 26.7437H9.71902V67.0292H0V0Z" fill="#80D0D6"/>
<path d="M79.1758 0H93.558C99.0556 0 103.277 1.50464 106.222 4.56245C109.118 7.62027 110.591 11.843 110.591 17.3276V48.6823C110.591 54.9436 109.069 59.6031 105.977 62.5638C102.884 65.5246 98.4666 67.0292 92.7235 67.0292H79.2249V0H79.1758ZM88.8457 57.9529H93.3125C96.0613 57.9529 97.9757 57.2733 99.1047 55.9143C100.234 54.5553 100.823 52.4682 100.823 49.556V17.3276C100.823 14.7066 100.283 12.6681 99.2029 11.212C98.123 9.75588 96.1595 9.02783 93.3125 9.02783H88.8457V57.9529Z" fill="#80D0D6"/>
<path d="M116.089 0H145V9.02783H125.758V28.6852H142.497V37.7131H125.758V57.3704H145V66.9807H116.089V0Z" fill="#80D0D6"/>
<path d="M40.0031 0.521276V10.083L73.4797 10.083V0.521276L40.0031 0.521276Z" fill="#80D0D6"/>
<path d="M56.7435 68C47.4662 68 39.907 60.5253 39.907 51.3519V31.3548C39.907 22.1813 47.4662 14.7067 56.7435 14.7067C66.0207 14.7067 73.58 22.1813 73.58 31.3548V51.4004C73.58 60.5739 66.0207 68 56.7435 68ZM56.7435 23.8801C52.5712 23.8801 49.1842 27.2291 49.1842 31.3548V51.4004C49.1842 55.5261 52.5712 58.8751 56.7435 58.8751C60.9158 58.8751 64.3027 55.5261 64.3027 51.4004V31.3548C64.3027 27.2291 60.9158 23.8801 56.7435 23.8801Z" fill="#80D0D6"/>
</svg>
