<svg width="145" height="68" viewBox="0 0 145 68" fill="none" xmlns="http://www.w3.org/2000/svg">
<path d="M0 0H9.32634L24.003 40.3826H24.1994V0H33.9184V66.9807H24.7393L9.91537 26.7437H9.71902V67.0292H0V0Z" fill="#80D0D6"/>
<path d="M79.1758 0H93.558C99.0556 0 103.277 1.50464 106.222 4.56245C109.118 7.62027 110.591 11.843 110.591 17.3276V48.6823C110.591 54.9436 109.069 59.6031 105.977 62.5638C102.884 65.5246 98.4666 67.0292 92.7235 67.0292H79.2249V0H79.1758ZM88.8457 57.9529H93.3125C96.0613 57.9529 97.9757 57.2733 99.1047 55.9143C100.234 54.5553 100.823 52.4682 100.823 49.556V17.3276C100.823 14.7066 100.283 12.6681 99.2029 11.212C98.123 9.75588 96.1595 9.02783 93.3125 9.02783H88.8457V57.9529Z" fill="#80D0D6"/>
<path d="M116.089 0H145V9.02783H125.758V28.6852H142.497V37.7131H125.758V57.3704H145V66.9807H116.089V0Z" fill="#80D0D6"/>
<path d="M40.0031 0.521276V10.083L73.4797 10.083V0.521276L40.0031 0.521276Z" fill="#80D0D6"/>
<path d="M56.7435 67.9999C47.4662 67.9999 39.907 60.5252 39.907 51.3518V31.3546C39.907 22.1812 47.4662 14.7065 56.7435 14.7065C66.0207 14.7065 73.58 22.1812 73.58 31.3546V51.4003C73.58 60.5738 66.0207 67.9999 56.7435 67.9999ZM56.7435 23.88C52.5712 23.88 49.1842 27.229 49.1842 31.3546V51.4003C49.1842 55.5259 52.5712 58.875 56.7435 58.875C60.9158 58.875 64.3027 55.5259 64.3027 51.4003V31.3546C64.3027 27.229 60.9158 23.88 56.7435 23.88Z" fill="#80D0D6"/>
</svg>
