<svg width="49" height="24" viewBox="0 0 49 24" fill="none" xmlns="http://www.w3.org/2000/svg">
<path d="M0 0.979492H3.15165L8.11135 14.6381H8.17771V0.979492H11.4621V23.6343H8.36017L3.3507 10.025H3.28435V23.6508H0V0.979492Z" fill="#F0F8F8"/>
<path d="M26.7559 0.979492H31.616C33.4738 0.979492 34.9004 1.48841 35.8956 2.52265C36.8743 3.55689 37.3719 4.98513 37.3719 6.8402V17.4453C37.3719 19.563 36.8577 21.139 35.8127 22.1404C34.7677 23.1418 33.2748 23.6508 31.334 23.6508H26.7724V0.979492H26.7559ZM30.0236 20.5809H31.5331C32.462 20.5809 33.1089 20.351 33.4904 19.8914C33.872 19.4317 34.071 18.7258 34.071 17.7408V6.8402C34.071 5.95371 33.8885 5.26421 33.5236 4.77172C33.1587 4.27922 32.4952 4.03297 31.5331 4.03297H30.0236V20.5809Z" fill="#F0F8F8"/>
<path d="M39.23 0.979492H49.0001V4.03297H42.4977V10.6817H48.1541V13.7352H42.4977V20.3839H49.0001V23.6343H39.23V0.979492Z" fill="#F0F8F8"/>
<path d="M13.5186 1.15559V4.38965L24.8313 4.38965V1.15559L13.5186 1.15559Z" fill="#F0F8F8"/>
<path d="M19.1749 23.9795C16.0398 23.9795 13.4854 21.4513 13.4854 18.3486V11.585C13.4854 8.48225 16.0398 5.9541 19.1749 5.9541C22.31 5.9541 24.8645 8.48225 24.8645 11.585V18.365C24.8645 21.4678 22.31 23.9795 19.1749 23.9795ZM19.1749 9.05683C17.765 9.05683 16.6204 10.1896 16.6204 11.585V18.365C16.6204 19.7604 17.765 20.8932 19.1749 20.8932C20.5849 20.8932 21.7294 19.7604 21.7294 18.365V11.585C21.7294 10.1896 20.5849 9.05683 19.1749 9.05683Z" fill="#F0F8F8"/>
</svg>
