<svg width="15" height="8" viewBox="0 0 15 8" fill="none" xmlns="http://www.w3.org/2000/svg">
<path d="M7.94318 2.66667C7.38068 1.11333 5.87045 0 4.09091 0C1.83068 0 0 1.79 0 4C0 6.21 1.83068 8 4.09091 8C5.87045 8 7.38068 6.88667 7.94318 5.33333H10.9091V8H13.6364V5.33333H15V2.66667H7.94318ZM4.09091 5.33333C3.3375 5.33333 2.72727 4.73667 2.72727 4C2.72727 3.26333 3.3375 2.66667 4.09091 2.66667C4.84432 2.66667 5.45455 3.26333 5.45455 4C5.45455 4.73667 4.84432 5.33333 4.09091 5.33333Z" fill="#4E595A"/>
</svg>
